<?xml version="1.0" encoding="UTF-8"?>
<svg id="_圖層_2" data-name="圖層 2" xmlns="http://www.w3.org/2000/svg" viewBox="0 0 750 500">
  <defs>
    <style>
      .cls-1 {
        fill: #111b33;
      }

      .cls-1, .cls-2, .cls-3, .cls-4, .cls-5, .cls-6 {
        stroke-width: 0px;
      }

      .cls-2 {
        fill: #314d91;
      }

      .cls-3 {
        fill: #243869;
      }

      .cls-4 {
        fill: #ffad96;
      }

      .cls-5 {
        fill: #1c2c53;
      }

      .cls-6 {
        fill: #3e62ba;
      }
    </style>
  </defs>
  <g id="BACKGROUND">
    <rect id="bg" class="cls-5" width="750" height="500"/>
    <path id="treeRight" class="cls-1" d="M725.93,183.64c-.21-4.79-1.5-9.46-3.79-13.67l-10.37-19.05c-2.74-5.03-4.05-10.71-3.79-16.44l1-22.05c3.48,3.73,8.43,6.08,13.94,6.08,6.49,0,12.22-3.25,15.67-8.2,1.81.97,3.88,1.52,6.08,1.52,1.91,0,3.71-.42,5.34-1.17v-53.09c-1.53-.43-3.13-.68-4.79-.68-1.45,0-2.85.19-4.19.52-2.52-7.6-9.67-13.08-18.11-13.08-5.63,0-10.68,2.45-14.17,6.33-1.24-4.46-5.32-7.74-10.18-7.74-2.25,0-4.33.71-6.04,1.9-2.24-1.21-4.81-1.9-7.54-1.9-8.76,0-15.86,7.1-15.86,15.86,0,4.66,2.02,8.83,5.22,11.73-.94,2-1.48,4.22-1.48,6.58,0,2.2.46,4.29,1.29,6.18-4.34.69-7.65,4.44-7.65,8.97,0,5.02,4.07,9.09,9.09,9.09,2.45,0,4.66-.97,6.3-2.54,1.67,7.09,8.02,12.38,15.63,12.38,1.29,0,2.54-.17,3.74-.45l-2.18,31.42c-.45,6.43,1.1,12.85,4.43,18.37l6.88,11.42c3.49,5.8,5.02,12.57,4.35,19.31l-3.05,30.71-48.15-29.25c-1.01-.61-1.82-1.51-2.32-2.58l-10.8-22.91c-.39-.83-.97-1.57-1.69-2.14l-30.21-24.12c.19-1.09.3-2.2.3-3.34,0-.19-.02-.37-.03-.55.52.07,1.05.11,1.58.11,6.75,0,12.21-5.47,12.21-12.21s-5.47-12.21-12.21-12.21c-1.68,0-3.28.34-4.73.95.02-.32.05-.63.05-.95,0-8.27-6.7-14.97-14.97-14.97-3.41,0-6.55,1.15-9.06,3.07-3.15-4.96-8.68-8.25-14.99-8.25-9.82,0-17.78,7.96-17.78,17.78,0,.3.03.6.05.9-6.68,2.7-11.4,9.23-11.4,16.88,0,10.05,8.15,18.21,18.21,18.21,1.64,0,3.21-.24,4.72-.64,1.61,1.18,3.59,1.88,5.74,1.88,1.85,0,3.58-.53,5.05-1.43,3.19,6.63,9.95,11.22,17.81,11.22,7.27,0,13.6-3.93,17.04-9.77l23.47,24.15c.6.62,1.07,1.37,1.36,2.19l2.93,8.26c1.53,4.31-2.11,8.69-6.63,7.97l-20.01-3.18c-2.07-7.32-8.78-12.69-16.76-12.69-.84,0-1.66.08-2.47.2-1.85-4.02-5.9-6.82-10.61-6.82-3.07,0-5.86,1.19-7.94,3.13-2.45-2.59-5.91-4.22-9.76-4.22-7.43,0-13.45,6.02-13.45,13.45,0,2.89.92,5.56,2.47,7.75-1.56,2.34-2.47,5.14-2.47,8.16,0,6.78,4.59,12.48,10.83,14.2-.02.3-.05.6-.05.9,0,6.19,5.02,11.2,11.2,11.2,4.08,0,7.65-2.19,9.61-5.46,1.95,2.86,5.23,4.74,8.96,4.74,5.99,0,10.84-4.85,10.84-10.84,0-1-.15-1.97-.4-2.89,5.16-2.17,9.05-6.76,10.27-12.35l37.06,7.98c.75.16,1.45.46,2.09.89l51,34.19,42.43,58.31v-34.31l-15.03-21.38,15.03-29.25v-13.21l-22.34,25.44-1.73-40.46Z"/>
    <path id="treeLeft" class="cls-1" d="M204.32,113.35c.05-.56.09-1.13.09-1.71,0-11.01-8.93-19.94-19.94-19.94-7.45,0-13.93,4.09-17.35,10.14-.65-.07-1.3-.11-1.97-.11-10.23,0-18.53,8.3-18.53,18.53,0,5.37,2.29,10.18,5.94,13.57-.36,1.6-.56,3.25-.56,4.96,0,3.7.91,7.19,2.51,10.25l-10.86,12.09c-.95,1.06-2.49,1.35-3.76.72l-34.22-17.1c-1.96-.98-4.3-.82-6.1.43l-8.53,5.88-30.04-8.35c-.38-2.59-1.31-4.99-2.72-7.07,5.81-.83,10.28-5.82,10.28-11.86,0-3.05-1.15-5.82-3.02-7.94,6.12-4.51,10.09-11.76,10.09-19.94,0-13.67-11.08-24.75-24.75-24.75-5.81,0-11.14,2-15.36,5.35-2.91-7-9.81-11.93-17.87-11.93s-14.62,4.7-17.65,11.44v15.79c.09.21.19.42.29.63-.1.09-.19.19-.29.29v62.3c1.4.21,2.84.32,4.3.32,7.23,0,13.83-2.65,18.91-7.03,1.43-.04,2.85-.16,4.23-.38,1.33,8.07,8.31,14.24,16.76,14.24,7.71,0,14.22-5.14,16.3-12.18l22.82,6.4-2.05,1.41c-.4.27-.76.59-1.08.95L0,248.81v45.07l86.48-127.67c.37-.54.82-1.02,1.34-1.41l13-9.88c2.01-1.53,4.76-1.64,6.89-.27l16.35,10.49c.58.37,1.02.92,1.26,1.56l6.87,18.62c1.73,4.67,5.4,8.36,10.07,10.1l17.18,6.41c-4.36,1.83-7.42,6.14-7.42,11.16,0,1.93.46,3.75,1.27,5.37-3.44,3.2-5.61,7.76-5.61,12.83,0,9.61,7.74,17.4,17.32,17.52,5.03,6.82,13.12,11.25,22.24,11.25,15.25,0,27.62-12.36,27.62-27.62,0-5.22-1.45-10.1-3.96-14.26,1.67-1.83,2.69-4.25,2.69-6.91,0-5.67-4.6-10.27-10.27-10.27-1.07,0-2.11.17-3.08.47-3.17-6.47-9.8-10.94-17.49-10.94-6.82,0-12.81,3.51-16.3,8.82l-18.9-8.63c-4.89-2.23-8.45-6.63-9.61-11.89l-.86-3.88c-.57-2.58,2.09-4.68,4.47-3.52h0c1.34.65,2.95.28,3.87-.89l12.73-16.28c2.96,3.11,6.81,5.36,11.15,6.35-.06.54-.1,1.08-.1,1.63,0,7.6,6.16,13.76,13.76,13.76,5.9,0,10.92-3.72,12.87-8.93,2.33.65,4.78,1,7.31,1,15.08,0,27.31-12.23,27.31-27.31s-11.59-26.65-26.11-27.28Z"/>
    <path id="bgCircle2" class="cls-3" d="M750,278.95c-1.74-.26-3.52-.4-5.33-.4-19.76,0-35.77,16.02-35.77,35.77,0,4.2.73,8.22,2.06,11.97-1.82-.09-3.65-.14-5.49-.14-23,0-44.34,7.13-61.94,19.28-8.08-14.13-23.29-23.66-40.73-23.66-25.9,0-46.89,20.99-46.89,46.89,0,1.11.05,2.21.13,3.3-7.08-3.92-15.22-6.16-23.88-6.16-16.8,0-31.63,8.4-40.55,21.22-5.51-6.91-14-11.34-23.53-11.34-16.62,0-30.1,13.47-30.1,30.1,0,6.94,2.36,13.33,6.31,18.43-3.59,2.02-6.98,4.34-10.14,6.94-16.6-7.15-37.04-11.37-59.15-11.37s-42.55,4.22-59.15,11.37c-12.14-9.99-27.69-15.98-44.64-15.98-1.35,0-2.68.05-4.01.12,0-.04,0-.08,0-.12,0-27.26-22.1-49.36-49.36-49.36-17.68,0-33.19,9.31-41.9,23.28-3.91-11.12-14.5-19.09-26.95-19.09-5.21,0-10.08,1.4-14.29,3.83-19.64-28.78-52.7-47.68-90.17-47.68-15.86,0-30.93,3.39-44.53,9.48v164.37h750v-221.05Z"/>
    <path id="bgCircle1" class="cls-4" d="M750,298.95c-1.74-.26-3.52-.4-5.33-.4-19.76,0-35.77,16.02-35.77,35.77,0,4.2.73,8.22,2.06,11.97-1.82-.09-3.65-.14-5.49-.14-23,0-44.34,7.13-61.94,19.28-8.08-14.13-23.29-23.66-40.73-23.66-25.9,0-46.89,20.99-46.89,46.89,0,1.11.05,2.21.13,3.3-7.08-3.92-15.22-6.16-23.88-6.16-16.8,0-31.63,8.4-40.55,21.22-5.51-6.91-14-11.34-23.53-11.34-16.62,0-30.1,13.47-30.1,30.1,0,6.94,2.36,13.33,6.31,18.43-3.59,2.02-6.98,4.34-10.14,6.94-16.6-7.15-37.04-11.37-59.15-11.37s-42.55,4.22-59.15,11.37c-12.14-9.99-27.69-15.98-44.64-15.98-1.35,0-2.68.05-4.01.12,0-.04,0-.08,0-.12,0-27.26-22.1-49.36-49.36-49.36-17.68,0-33.19,9.31-41.9,23.28-3.91-11.12-14.5-19.09-26.95-19.09-5.21,0-10.08,1.4-14.29,3.83-19.64-28.78-52.7-47.68-90.17-47.68-15.86,0-30.93,3.39-44.53,9.48v144.37h750v-201.05Z"/>
    <path id="tree3" class="cls-1" d="M457.34,434.32c7.28.22,3.89-.31,11.16,0,2.79-2.65,10.29-17.88,12.33-22.49,4.32-9.8,3.99-19.12-.75-20.82s-12.08,4.85-16.41,14.65c-.2.46-.39.92-.57,1.38-3.27-4.22-7.87-6.42-11.56-5.1-4.74,1.7-6.15,8.58-3.16,15.35.82,1.85,7.75,15.63,8.96,17.02Z"/>
    <path id="tree2" class="cls-1" d="M308.68,423.59c1.68-3.48,1.31-7.36-1.21-9.54-1.6-1.39-3.77-1.81-5.95-1.38.01-.03.02-.06.03-.09,4.59-13.37,2.8-26.1-4-28.44-6.16-2.11-14.32,5.02-19.21,16.32-5.01-9.22-12.46-14.66-17.62-12.42-5.75,2.51-6.45,13.63-1.56,24.84.09.21.2.42.29.63-2.43.17-4.6,1.18-6.02,3.02-2.1,2.73-2.02,6.58-.16,10-2.73,31.19,68.22,23.48,55.41-2.96Z"/>
    <path id="tree1" class="cls-5" d="M178.89,445.26c.19-1.07.31-16.16.31-17.28,0-10.33-8.37-18.7-18.7-18.7-5.93,0-11.21,2.77-14.63,7.08-3.73-4.74-9.5-7.8-16-7.8-1.44,0-2.85.16-4.21.44.4-.93.62-1.95.62-3.02,0-4.24-3.44-7.68-7.68-7.68-4,0-7.28,3.06-7.64,6.96-3.76-2.12-8.09-3.33-12.71-3.33-3.13,0-6.13.55-8.91,1.57.18-.75.28-1.52.28-2.32,0-5.56-4.51-10.06-10.06-10.06-3.99,0-7.42,2.33-9.05,5.69-5.56-5.15-12.99-8.3-21.16-8.3-12.7,0-23.61,7.6-28.46,18.49-1.31-1.18-3.04-1.9-4.94-1.9-4.09,0-7.4,3.32-7.4,7.4,0,1.38.39,2.67,1.05,3.78-3.54.42-6.81,1.73-9.56,3.72v32.77c59.28-.17,118.92-3.69,178.89-7.53Z"/>
    <path id="tree4" class="cls-5" d="M750,418.16c-2.23-1.17-4.68-1.97-7.28-2.31.72-1.17,1.15-2.55,1.17-4.03.06-4.37-3.44-7.96-7.81-8.02-2.03-.03-3.89.72-5.3,1.96-5.04-11.71-16.6-19.99-30.17-20.16-8.74-.11-16.73,3.15-22.74,8.58-1.69-3.62-5.33-6.15-9.6-6.21-5.94-.08-10.82,4.68-10.9,10.62-.01.85.09,1.68.27,2.48-2.95-1.12-6.15-1.76-9.5-1.8-4.94-.06-9.59,1.17-13.63,3.38-.33-4.18-3.8-7.49-8.07-7.55-4.53-.06-8.26,3.57-8.32,8.1-.01,1.14.21,2.24.62,3.23-1.45-.32-2.95-.51-4.5-.53-6.95-.09-13.16,3.1-17.22,8.12-3.6-4.65-9.2-7.69-15.54-7.77-11.04-.14-20.11,8.69-20.25,19.73-.02,1.2.09,12.37.28,13.51,63.16,4.87,125.99,9.38,188.49,10.47v-31.82Z"/>
    <g id="water">
      <path class="cls-2" d="M750,437.62c-114.04-.29-229.34-17.43-345.74-17.43-136.34,0-271.19,17.2-404.26,17.59v62.22h750v-62.38Z"/>
      <path class="cls-6" d="M404.26,420.19c-136.34,0-271.19,17.2-404.26,17.59v8c133.07-.39,267.91-17.59,404.26-17.59,116.4,0,231.7,17.15,345.74,17.43v-8c-114.04-.29-229.34-17.43-345.74-17.43Z"/>
    </g>
  </g>
</svg>