<?xml version="1.0" encoding="UTF-8"?>
<svg id="_圖層_2" data-name="圖層 2" xmlns="http://www.w3.org/2000/svg" xmlns:xlink="http://www.w3.org/1999/xlink" viewBox="0 0 768.82 515.04">
  <defs>
    <style>
      .cls-1 {
        fill: #d79120;
      }

      .cls-1, .cls-2, .cls-3, .cls-4, .cls-5, .cls-6, .cls-7, .cls-8, .cls-9, .cls-10, .cls-11, .cls-12, .cls-13, .cls-14 {
        stroke-width: 0px;
      }

      .cls-2 {
        fill: #111b33;
      }

      .cls-3 {
        fill: #fada26;
      }

      .cls-15 {
        clip-path: url(#clippath);
      }

      .cls-4, .cls-16, .cls-17, .cls-18 {
        fill: none;
      }

      .cls-16 {
        stroke-width: 1.86px;
      }

      .cls-16, .cls-17 {
        stroke: #d15b13;
      }

      .cls-16, .cls-17, .cls-18 {
        stroke-linecap: round;
        stroke-linejoin: round;
      }

      .cls-5 {
        fill: #314d91;
      }

      .cls-6 {
        fill: #d15b13;
      }

      .cls-7 {
        opacity: .49;
      }

      .cls-7, .cls-10 {
        fill: #243869;
      }

      .cls-8 {
        fill: #d77c20;
      }

      .cls-17 {
        stroke-width: 4px;
      }

      .cls-9 {
        fill: #ffddd4;
      }

      .cls-18 {
        stroke: #111b33;
        stroke-width: 2px;
      }

      .cls-11 {
        fill: #ffad96;
      }

      .cls-19 {
        opacity: .2;
      }

      .cls-12 {
        fill: #fff;
      }

      .cls-13 {
        fill: #1c2c53;
      }

      .cls-14 {
        fill: #3e62ba;
      }
    </style>
    <clipPath id="clippath">
      <rect id="clipMask" class="cls-4" x="4.24" width="750" height="500"/>
    </clipPath>
  </defs>
  <g id="BACKGROUND">
    <g class="cls-15">
      <rect id="bg" class="cls-13" x="4.24" width="750" height="500"/>
      <path id="treeRight" class="cls-2" d="M730.17,183.64c-.21-4.79-1.5-9.46-3.79-13.67l-10.37-19.05c-2.74-5.03-4.05-10.71-3.79-16.44l1-22.05c3.48,3.73,8.43,6.08,13.94,6.08,6.49,0,12.22-3.25,15.67-8.2,1.81.97,3.88,1.52,6.08,1.52,1.91,0,3.71-.42,5.34-1.17v-53.09c-1.53-.43-3.13-.68-4.79-.68-1.45,0-2.85.19-4.19.52-2.52-7.6-9.67-13.08-18.11-13.08-5.63,0-10.68,2.45-14.17,6.33-1.24-4.46-5.32-7.74-10.18-7.74-2.25,0-4.33.71-6.04,1.9-2.24-1.21-4.81-1.9-7.54-1.9-8.76,0-15.86,7.1-15.86,15.86,0,4.66,2.02,8.83,5.22,11.73-.94,2-1.48,4.22-1.48,6.58,0,2.2.46,4.29,1.29,6.18-4.34.69-7.65,4.44-7.65,8.97,0,5.02,4.07,9.09,9.09,9.09,2.45,0,4.66-.97,6.3-2.54,1.67,7.09,8.02,12.38,15.63,12.38,1.29,0,2.54-.17,3.74-.45l-2.18,31.42c-.45,6.43,1.1,12.85,4.43,18.37l6.88,11.42c3.49,5.8,5.02,12.57,4.35,19.31l-3.05,30.71-48.15-29.25c-1.01-.61-1.82-1.51-2.32-2.58l-10.8-22.91c-.39-.83-.97-1.57-1.69-2.14l-30.21-24.12c.19-1.09.3-2.2.3-3.34,0-.19-.02-.37-.03-.55.52.07,1.05.11,1.58.11,6.75,0,12.21-5.47,12.21-12.21s-5.47-12.21-12.21-12.21c-1.68,0-3.28.34-4.73.95.02-.32.05-.63.05-.95,0-8.27-6.7-14.97-14.97-14.97-3.41,0-6.55,1.15-9.06,3.07-3.15-4.96-8.68-8.25-14.99-8.25-9.82,0-17.78,7.96-17.78,17.78,0,.3.03.6.05.9-6.68,2.7-11.4,9.23-11.4,16.88,0,10.05,8.15,18.21,18.21,18.21,1.64,0,3.21-.24,4.72-.64,1.61,1.18,3.59,1.88,5.74,1.88,1.85,0,3.58-.53,5.05-1.43,3.19,6.63,9.95,11.22,17.81,11.22,7.27,0,13.6-3.93,17.04-9.77l23.47,24.15c.6.62,1.07,1.37,1.36,2.19l2.93,8.26c1.53,4.31-2.11,8.69-6.63,7.97l-20.01-3.18c-2.07-7.32-8.78-12.69-16.76-12.69-.84,0-1.66.08-2.47.2-1.85-4.02-5.9-6.82-10.61-6.82-3.07,0-5.86,1.19-7.94,3.13-2.45-2.59-5.91-4.22-9.76-4.22-7.43,0-13.45,6.02-13.45,13.45,0,2.89.92,5.56,2.47,7.75-1.56,2.34-2.47,5.14-2.47,8.16,0,6.78,4.59,12.48,10.83,14.2-.02.3-.05.6-.05.9,0,6.19,5.02,11.2,11.2,11.2,4.08,0,7.65-2.19,9.61-5.46,1.95,2.86,5.23,4.74,8.96,4.74,5.99,0,10.84-4.85,10.84-10.84,0-1-.15-1.97-.4-2.89,5.16-2.17,9.05-6.76,10.27-12.35l37.06,7.98c.75.16,1.45.46,2.09.89l51,34.19,42.43,58.31v-34.31l-15.03-21.38,15.03-29.25v-13.21l-22.34,25.44-1.73-40.46Z"/>
      <path id="treeLeft" class="cls-2" d="M208.56,113.35c.05-.56.09-1.13.09-1.71,0-11.01-8.93-19.94-19.94-19.94-7.45,0-13.93,4.09-17.35,10.14-.65-.07-1.3-.11-1.97-.11-10.23,0-18.53,8.3-18.53,18.53,0,5.37,2.29,10.18,5.94,13.57-.36,1.6-.56,3.25-.56,4.96,0,3.7.91,7.19,2.51,10.25l-10.86,12.09c-.95,1.06-2.49,1.35-3.76.72l-34.22-17.1c-1.96-.98-4.3-.82-6.1.43l-8.53,5.88-30.04-8.35c-.38-2.59-1.31-4.99-2.72-7.07,5.81-.83,10.28-5.82,10.28-11.86,0-3.05-1.15-5.82-3.02-7.94,6.12-4.51,10.09-11.76,10.09-19.94,0-13.67-11.08-24.75-24.75-24.75-5.81,0-11.14,2-15.36,5.35-2.91-7-9.81-11.93-17.87-11.93s-14.62,4.7-17.65,11.44v15.79c.09.21.19.42.29.63-.1.09-.19.19-.29.29v62.3c1.4.21,2.84.32,4.3.32,7.23,0,13.83-2.65,18.91-7.03,1.43-.04,2.85-.16,4.23-.38,1.33,8.07,8.31,14.24,16.76,14.24,7.71,0,14.22-5.14,16.3-12.18l22.82,6.4-2.05,1.41c-.4.27-.76.59-1.08.95L4.24,248.81v45.07l86.48-127.67c.37-.54.82-1.02,1.34-1.41l13-9.88c2.01-1.53,4.76-1.64,6.89-.27l16.35,10.49c.58.37,1.02.92,1.26,1.56l6.87,18.62c1.73,4.67,5.4,8.36,10.07,10.1l17.18,6.41c-4.36,1.83-7.42,6.14-7.42,11.16,0,1.93.46,3.75,1.27,5.37-3.44,3.2-5.61,7.76-5.61,12.83,0,9.61,7.74,17.4,17.32,17.52,5.03,6.82,13.12,11.25,22.24,11.25,15.25,0,27.62-12.36,27.62-27.62,0-5.22-1.45-10.1-3.96-14.26,1.67-1.83,2.69-4.25,2.69-6.91,0-5.67-4.6-10.27-10.27-10.27-1.07,0-2.11.17-3.08.47-3.17-6.47-9.8-10.94-17.49-10.94-6.82,0-12.81,3.51-16.3,8.82l-18.9-8.63c-4.89-2.23-8.45-6.63-9.61-11.89l-.86-3.88c-.57-2.58,2.09-4.68,4.47-3.52h0c1.34.65,2.95.28,3.87-.89l12.73-16.28c2.96,3.11,6.81,5.36,11.15,6.35-.06.54-.1,1.08-.1,1.63,0,7.6,6.16,13.76,13.76,13.76,5.9,0,10.92-3.72,12.87-8.93,2.33.65,4.78,1,7.31,1,15.08,0,27.31-12.23,27.31-27.31s-11.59-26.65-26.11-27.28Z"/>
      <path id="bgCircle2" class="cls-10" d="M754.24,278.95c-1.74-.26-3.52-.4-5.33-.4-19.76,0-35.77,16.02-35.77,35.77,0,4.2.73,8.22,2.06,11.97-1.82-.09-3.65-.14-5.49-.14-23,0-44.34,7.13-61.94,19.28-8.08-14.13-23.29-23.66-40.73-23.66-25.9,0-46.89,20.99-46.89,46.89,0,1.11.05,2.21.13,3.3-7.08-3.92-15.22-6.16-23.88-6.16-16.8,0-31.63,8.4-40.55,21.22-5.51-6.91-14-11.34-23.53-11.34-16.62,0-30.1,13.47-30.1,30.1,0,6.94,2.36,13.33,6.31,18.43-3.59,2.02-6.98,4.34-10.14,6.94-16.6-7.15-37.04-11.37-59.15-11.37s-42.55,4.22-59.15,11.37c-12.14-9.99-27.69-15.98-44.64-15.98-1.35,0-2.68.05-4.01.12,0-.04,0-.08,0-.12,0-27.26-22.1-49.36-49.36-49.36-17.68,0-33.19,9.31-41.9,23.28-3.91-11.12-14.5-19.09-26.95-19.09-5.21,0-10.08,1.4-14.29,3.83-19.64-28.78-52.7-47.68-90.17-47.68-15.86,0-30.93,3.39-44.53,9.48v164.37h750v-221.05Z"/>
      <path id="bgCircle1" class="cls-11" d="M754.24,298.95c-1.74-.26-3.52-.4-5.33-.4-19.76,0-35.77,16.02-35.77,35.77,0,4.2.73,8.22,2.06,11.97-1.82-.09-3.65-.14-5.49-.14-23,0-44.34,7.13-61.94,19.28-8.08-14.13-23.29-23.66-40.73-23.66-25.9,0-46.89,20.99-46.89,46.89,0,1.11.05,2.21.13,3.3-7.08-3.92-15.22-6.16-23.88-6.16-16.8,0-31.63,8.4-40.55,21.22-5.51-6.91-14-11.34-23.53-11.34-16.62,0-30.1,13.47-30.1,30.1,0,6.94,2.36,13.33,6.31,18.43-3.59,2.02-6.98,4.34-10.14,6.94-16.6-7.15-37.04-11.37-59.15-11.37s-42.55,4.22-59.15,11.37c-12.14-9.99-27.69-15.98-44.64-15.98-1.35,0-2.68.05-4.01.12,0-.04,0-.08,0-.12,0-27.26-22.1-49.36-49.36-49.36-17.68,0-33.19,9.31-41.9,23.28-3.91-11.12-14.5-19.09-26.95-19.09-5.21,0-10.08,1.4-14.29,3.83-19.64-28.78-52.7-47.68-90.17-47.68-15.86,0-30.93,3.39-44.53,9.48v144.37h750v-201.05Z"/>
      <path id="tree3" class="cls-2" d="M461.58,434.32c7.28.22,3.89-.31,11.16,0,2.79-2.65,10.29-17.88,12.33-22.49,4.32-9.8,3.99-19.12-.75-20.82s-12.08,4.85-16.41,14.65c-.2.46-.39.92-.57,1.38-3.27-4.22-7.87-6.42-11.56-5.1-4.74,1.7-6.15,8.58-3.16,15.35.82,1.85,7.75,15.63,8.96,17.02Z"/>
      <path id="tree2" class="cls-2" d="M312.92,423.59c1.68-3.48,1.31-7.36-1.21-9.54-1.6-1.39-3.77-1.81-5.95-1.38.01-.03.02-.06.03-.09,4.59-13.37,2.8-26.1-4-28.44-6.16-2.11-14.32,5.02-19.21,16.32-5.01-9.22-12.46-14.66-17.62-12.42-5.75,2.51-6.45,13.63-1.56,24.84.09.21.2.42.29.63-2.43.17-4.6,1.18-6.02,3.02-2.1,2.73-2.02,6.58-.16,10-2.73,31.19,68.22,23.48,55.41-2.96Z"/>
      <path id="tree1" class="cls-13" d="M183.13,445.26c.19-1.07.31-16.16.31-17.28,0-10.33-8.37-18.7-18.7-18.7-5.93,0-11.21,2.77-14.63,7.08-3.73-4.74-9.5-7.8-16-7.8-1.44,0-2.85.16-4.21.44.4-.93.62-1.95.62-3.02,0-4.24-3.44-7.68-7.68-7.68-4,0-7.28,3.06-7.64,6.96-3.76-2.12-8.09-3.33-12.71-3.33-3.13,0-6.13.55-8.91,1.57.18-.75.28-1.52.28-2.32,0-5.56-4.51-10.06-10.06-10.06-3.99,0-7.42,2.33-9.05,5.69-5.56-5.15-12.99-8.3-21.16-8.3-12.7,0-23.61,7.6-28.46,18.49-1.31-1.18-3.04-1.9-4.94-1.9-4.09,0-7.4,3.32-7.4,7.4,0,1.38.39,2.67,1.05,3.78-3.54.42-6.81,1.73-9.56,3.72v32.77c59.28-.17,118.92-3.69,178.89-7.53Z"/>
      <path id="tree4" class="cls-13" d="M754.24,418.16c-2.23-1.17-4.68-1.97-7.28-2.31.72-1.17,1.15-2.55,1.17-4.03.06-4.37-3.44-7.96-7.81-8.02-2.03-.03-3.89.72-5.3,1.96-5.04-11.71-16.6-19.99-30.17-20.16-8.74-.11-16.73,3.15-22.74,8.58-1.69-3.62-5.33-6.15-9.6-6.21-5.94-.08-10.82,4.68-10.9,10.62-.01.85.09,1.68.27,2.48-2.95-1.12-6.15-1.76-9.5-1.8-4.94-.06-9.59,1.17-13.63,3.38-.33-4.18-3.8-7.49-8.07-7.55-4.53-.06-8.26,3.57-8.32,8.1-.01,1.14.21,2.24.62,3.23-1.45-.32-2.95-.51-4.5-.53-6.95-.09-13.16,3.1-17.22,8.12-3.6-4.65-9.2-7.69-15.54-7.77-11.04-.14-20.11,8.69-20.25,19.73-.02,1.2.09,12.37.28,13.51,63.16,4.87,125.99,9.38,188.49,10.47v-31.82Z"/>
      <g id="water">
        <path class="cls-5" d="M754.24,437.62c-114.04-.29-229.34-17.43-345.74-17.43-136.34,0-271.19,17.2-404.26,17.59v62.22h750v-62.38Z"/>
        <path class="cls-14" d="M408.5,420.19c-136.34,0-271.19,17.2-404.26,17.59v8c133.07-.39,267.91-17.59,404.26-17.59,116.4,0,231.7,17.15,345.74,17.43v-8c-114.04-.29-229.34-17.43-345.74-17.43Z"/>
        <g id="moon2" class="cls-19">
          <ellipse class="cls-10" cx="394.89" cy="443.69" rx="71.41" ry="21.81"/>
          <g>
            <ellipse class="cls-9" cx="394.89" cy="443.69" rx="57.8" ry="17.65"/>
            <path class="cls-11" d="M405.95,429.5c-30.29,0-54.85,7.5-54.85,16.76,0,6,10.31,11.26,25.81,14.22-23.12-2.31-39.82-8.95-39.82-16.78,0-9.75,25.88-17.65,57.8-17.65,20.06,0,37.73,3.12,48.1,7.86-9.76-2.73-22.76-4.4-37.04-4.4Z"/>
            <path class="cls-11" d="M369.69,437.11c4.84-1.66,6.31-3.67,3.28-4.5-3.03-.83-9.41-.15-14.25,1.51-4.84,1.66-6.31,3.67-3.28,4.5,3.03.83,9.41.15,14.25-1.51Z"/>
            <path class="cls-11" d="M371,449.59c-.77-1.36-3.46-2.35-6.01-2.21-2.55.13-3.99,1.34-3.23,2.7.77,1.36,3.46,2.35,6.01,2.21,2.55-.13,3.99-1.34,3.23-2.7Z"/>
            <ellipse class="cls-11" cx="409.61" cy="433.95" rx="8.81" ry="1.67"/>
            <path class="cls-11" d="M391.98,455.66c-2.78-.3-5.56-.08-6.21.49-.65.57,1.08,1.27,3.86,1.56,2.78.3,5.56.08,6.21-.49.65-.57-1.08-1.27-3.86-1.56Z"/>
            <path class="cls-12" d="M446.92,445.53c1.28-2.62-1.37-4.9-5.92-5.11-4.55-.21-9.26,1.75-10.54,4.36-1.28,2.62,1.37,4.9,5.92,5.11,4.55.21,9.26-1.75,10.54-4.36Z"/>
            <path class="cls-12" d="M433.57,454.41c1.77-.9,1.4-1.96-.82-2.36-2.22-.41-5.45,0-7.22.89s-1.4,1.96.82,2.36,5.45,0,7.22-.89Z"/>
          </g>
        </g>
        <g id="lantern2" class="cls-19">
          <ellipse class="cls-10" cx="72.37" cy="469.28" rx="37.87" ry="22.2"/>
          <path class="cls-3" d="M42.97,484.41c.59-.71,1.55-1.09,2.25-1.25.13-.03.13-.13,0-.15-.7-.15-1.66-.54-2.25-1.25-.05-.07-.23-.07-.28,0-.59.71-1.55,1.09-2.25,1.25-.13.03-.13.13,0,.15.7.15,1.66.54,2.25,1.25.05.07.23.07.28,0Z"/>
          <path class="cls-3" d="M105,470.6c.59-.71,1.55-1.09,2.25-1.25.13-.03.13-.13,0-.15-.7-.15-1.66-.54-2.25-1.25-.05-.06-.23-.06-.28,0-.59.71-1.55,1.09-2.25,1.25-.13.03-.13.13,0,.15.7.15,1.66.54,2.25,1.25.05.07.23.07.28,0Z"/>
          <path class="cls-3" d="M29.83,479.93c1.18-1.41,3.09-2.18,4.48-2.49.25-.06.25-.25,0-.31-1.4-.31-3.31-1.07-4.48-2.49-.11-.13-.45-.13-.56,0-1.18,1.41-3.09,2.18-4.48,2.49-.25.06-.25.25,0,.31,1.4.31,3.31,1.07,4.48,2.49.11.13.45.13.56,0Z"/>
          <path class="cls-3" d="M100.18,452.38c1.18-1.41,3.09-2.18,4.48-2.49.25-.06.25-.25,0-.31-1.4-.31-3.31-1.07-4.48-2.49-.11-.13-.45-.13-.56,0-1.18,1.41-3.09,2.18-4.48,2.49-.25.06-.25.25,0,.31,1.4.31,3.31,1.07,4.48,2.49.11.13.45.13.56,0Z"/>
          <g>
            <path class="cls-8" d="M73.33,451.31l-28.9,1.63-5.55,22.49c-.24.98,1.25,1.83,3.04,1.72l43.47-2.45c1.46-.08,2.4-.89,1.91-1.65l-13.97-21.74Z"/>
            <path class="cls-1" d="M47.38,474.93c-.11-.74-1.76-1.26-3.67-1.18-1.92.09-3.38.76-3.26,1.49.11.74,1.76,1.26,3.67,1.18s3.38-.76,3.26-1.49Z"/>
            <path class="cls-1" d="M90.61,471.74l5.93-7.09c.66-.79.5-1.7-.4-2.41l-18.43-14.42-4.37,3.5,13.07,20.33c.68,1.06,3.35,1.12,4.2.1Z"/>
            <path class="cls-3" d="M95.16,462.54c-1.09-.3-2.52.08-3.2.83s-.34,1.6.75,1.9c1.09.3,2.52-.08,3.2-.83.68-.75.34-1.6-.75-1.9Z"/>
            <polygon class="cls-6" points="78.71 459.67 83.09 466.49 40.35 469.52 42.05 462.64 78.71 459.67"/>
            <polygon class="cls-2" points="41.94 463.4 40.43 469.51 40.35 469.52 42.05 462.64 78.71 459.67 79.17 460.38 41.94 463.4"/>
            <polygon class="cls-2" points="82.59 465.71 83.09 466.49 40.35 469.52 40.55 468.69 82.59 465.71"/>
            <polygon class="cls-8" points="87.01 455.1 92.99 459.78 83.09 466.49 79.82 461.4 78.71 459.67 87.01 455.1"/>
            <polygon class="cls-13" points="79.17 460.39 78.71 459.67 87.01 455.1 87.74 455.67 79.17 460.39"/>
            <polygon class="cls-13" points="92.24 459.19 92.99 459.78 83.09 466.49 82.6 465.73 92.24 459.19"/>
            <polygon class="cls-3" points="44.44 452.94 49.19 449.42 77.71 447.81 73.33 451.31 44.44 452.94"/>
            <polygon class="cls-16" points="44.44 452.94 49.19 449.42 77.71 447.81 73.33 451.31 44.44 452.94"/>
            <g>
              <path class="cls-12" d="M57.79,452.19c-.68-.45-1.25-1-1.64-1.62-1.26-2.04-.06-4.11,2.67-4.61,2.73-.51,5.96.74,7.22,2.78.65,1.06.64,2.13.09,2.98l-8.35.47Z"/>
              <path class="cls-9" d="M66.46,449.74c.17.71.05,1.4-.32,1.98l-8.35.47c-.68-.45-1.25-1-1.64-1.62-.04-.06-.06-.12-.1-.18l10.4-.65Z"/>
            </g>
            <line class="cls-16" x1="73.33" y1="451.31" x2="44.44" y2="452.94"/>
            <path class="cls-8" d="M90.61,471.74s-1.2,2.5-4.74,2.91l-.98-5.37s1.88,4.03,5.72,2.46Z"/>
          </g>
        </g>
      </g>
    </g>
  </g>
  <g id="OBJECT">
    <g id="moon1">
      <circle id="moonShadow" class="cls-10" cx="397.92" cy="117.84" r="112.84" transform="translate(33.23 315.89) rotate(-45)"/>
      <g id="moonBody">
        <circle class="cls-9" cx="397.92" cy="117.84" r="91.33" transform="translate(33.23 315.89) rotate(-45)"/>
        <path class="cls-11" d="M415.4,191.23c-47.87,0-86.67-38.81-86.67-86.67,0-31.02,16.3-58.22,40.79-73.54-36.53,11.95-62.92,46.3-62.92,86.82,0,50.44,40.89,91.33,91.33,91.33,31.7,0,59.63-16.16,76-40.68-15.42,14.13-35.97,22.75-58.53,22.75Z"/>
        <path class="cls-11" d="M358.1,151.86c7.65,8.58,9.97,18.99,5.18,23.26-4.79,4.27-14.87.78-22.52-7.8-7.65-8.58-9.97-18.99-5.18-23.26,4.79-4.27,14.87-.78,22.52,7.8Z"/>
        <path class="cls-11" d="M360.17,87.32c-1.21,7.02-5.47,12.14-9.5,11.44-4.03-.7-6.31-6.95-5.1-13.97,1.21-7.02,5.47-12.14,9.5-11.44,4.03.7,6.31,6.95,5.1,13.97Z"/>
        <ellipse class="cls-11" cx="421.18" cy="168.21" rx="13.91" ry="8.62"/>
        <path class="cls-11" d="M393.32,55.93c-4.39,1.54-8.78.41-9.81-2.52s1.71-6.55,6.1-8.08c4.39-1.54,8.78-.41,9.81,2.52,1.02,2.93-1.71,6.55-6.1,8.08Z"/>
        <ellipse class="cls-12" cx="467.13" cy="110.27" rx="13.15" ry="24.77" transform="translate(-11.15 70.07) rotate(-8.48)"/>
        <path class="cls-12" d="M459.05,62.4c2.79,4.65,2.21,10.13-1.3,12.23-3.51,2.1-8.61.04-11.4-4.61-2.79-4.65-2.21-10.13,1.3-12.23,3.51-2.1,8.61-.04,11.4,4.61Z"/>
      </g>
    </g>
    <g id="lantern1">
      <ellipse class="cls-7" cx="77.2" cy="379.65" rx="60.19" ry="64.3"/>
      <path class="cls-3" d="M30.46,335.85c.94,2.05,2.46,3.16,3.57,3.61.2.08.2.37,0,.45-1.11.45-2.63,1.56-3.57,3.61-.09.19-.36.19-.44,0-.94-2.05-2.46-3.16-3.57-3.61-.2-.08-.2-.37,0-.45,1.11-.45,2.63-1.56,3.57-3.61.09-.19.36-.19.44,0Z"/>
      <path class="cls-3" d="M129.06,375.81c.94,2.05,2.46,3.16,3.57,3.61.2.08.2.37,0,.45-1.11.45-2.63,1.56-3.57,3.61-.09.19-.36.19-.44,0-.94-2.05-2.46-3.16-3.57-3.61-.2-.08-.2-.37,0-.45,1.11-.45,2.63-1.56,3.57-3.61.09-.19.36-.19.44,0Z"/>
      <path class="cls-3" d="M16.5,382.34c1.87,4.09,4.9,6.31,7.13,7.2.4.16.4.73,0,.89-2.22.89-5.25,3.11-7.13,7.2-.17.38-.72.38-.89,0-1.87-4.09-4.9-6.31-7.13-7.2-.4-.16-.4-.73,0-.89,2.22-.89,5.25-3.11,7.13-7.2.17-.38.72-.38.89,0Z"/>
      <path class="cls-3" d="M121.41,428.59c1.87,4.09,4.9,6.31,7.13,7.2.4.16.4.73,0,.89-2.22.89-5.25,3.11-7.13,7.2-.17.38-.72.38-.89,0-1.87-4.09-4.9-6.31-7.13-7.2-.4-.16-.4-.73,0-.89,2.22-.89,5.25-3.11,7.13-7.2.17-.38.72-.38.89,0Z"/>
      <g>
        <path class="cls-8" d="M81.23,428.96l-45.93-4.72-8.82-65.12c-.38-2.84,1.99-5.29,4.84-4.99l69.1,7.09c2.32.24,3.81,2.59,3.03,4.79l-22.21,62.95Z"/>
        <path class="cls-1" d="M39.98,360.57c-.18,2.14-2.79,3.66-5.84,3.4-3.04-.25-5.37-2.19-5.19-4.33.18-2.14,2.79-3.66,5.84-3.4,3.04.26,5.37,2.19,5.19,4.33Z"/>
        <path class="cls-1" d="M108.69,369.79l9.42,20.54c1.04,2.28.8,4.94-.64,6.99l-29.29,41.77-6.95-10.13,20.77-58.86c1.08-3.06,5.33-3.25,6.68-.3Z"/>
        <path class="cls-3" d="M115.93,396.43c-1.73.85-4.01-.22-5.09-2.41-1.08-2.18-.55-4.65,1.19-5.5,1.73-.85,4.01.22,5.09,2.41,1.08,2.18.55,4.65-1.18,5.5Z"/>
        <polygon class="cls-6" points="89.78 404.75 96.75 385 28.8 376.22 31.5 396.15 89.78 404.75"/>
        <polygon class="cls-2" points="31.33 393.96 28.93 376.24 28.8 376.22 31.5 396.15 89.78 404.75 90.5 402.69 31.33 393.96"/>
        <polygon class="cls-2" points="95.95 387.26 96.75 385 28.8 376.22 29.12 378.63 95.95 387.26"/>
        <polygon class="cls-8" points="102.98 417.99 112.49 404.43 96.75 385 91.54 399.75 89.78 404.75 102.98 417.99"/>
        <polygon class="cls-13" points="90.51 402.66 89.78 404.75 102.98 417.99 104.14 416.33 90.51 402.66"/>
        <polygon class="cls-13" points="111.29 406.13 112.49 404.43 96.75 385 95.97 387.2 111.29 406.13"/>
        <polygon class="cls-3" points="35.3 424.24 42.85 434.43 88.18 439.08 81.23 428.96 35.3 424.24"/>
        <polygon class="cls-17" points="35.3 424.24 42.85 434.43 88.18 439.08 81.23 428.96 35.3 424.24"/>
        <g>
          <path class="cls-12" d="M56.52,426.42c-1.08,1.3-1.99,2.89-2.6,4.69-2,5.91-.1,11.9,4.24,13.36,4.34,1.47,9.48-2.14,11.47-8.06,1.04-3.08,1.02-6.17.15-8.64l-13.27-1.36Z"/>
          <path class="cls-9" d="M70.3,433.51c.27-2.07.08-4.05-.51-5.73l-13.27-1.36c-1.08,1.3-1.99,2.89-2.6,4.69-.06.17-.1.35-.15.52l16.53,1.88Z"/>
        </g>
        <line class="cls-17" x1="81.23" y1="428.96" x2="35.3" y2="424.24"/>
        <path class="cls-8" d="M108.69,369.79c.07.1-1.9-7.23-7.54-8.42l-1.56,15.56s3-11.68,9.09-7.13Z"/>
      </g>
    </g>
  </g>
  <g id="FRONT">
    <g id="frontRight">
      <path class="cls-18" d="M648.54,403.12s120.29,26.86,93.16,110.92"/>
      <path class="cls-2" d="M652.77,401.51c-6.83-5.36-23.52-16.28-30.81-1.6-.22.44-.27.95-.14,1.42,4.22,15.83,22.76,8.45,30.51,4.56,1.71-.86,1.94-3.2.44-4.38Z"/>
      <path class="cls-2" d="M677.58,409.75c2.84-8.2,7.73-27.54-8.52-29.65-.49-.06-.99.05-1.39.33-13.6,9.15-.58,24.27,5.63,30.33,1.37,1.34,3.66.8,4.28-1.01Z"/>
      <path class="cls-2" d="M699.33,420.27c4.21-7.59,12.33-25.81-3.32-30.67-.47-.15-.98-.11-1.43.09-14.96,6.69-4.72,23.81.36,30.85,1.12,1.55,3.47,1.41,4.39-.26Z"/>
      <path class="cls-2" d="M717.84,433.97c5.72-6.52,17.54-22.6,3.28-30.68-.43-.24-.93-.32-1.41-.22-16.04,3.35-9.68,22.26-6.22,30.22.76,1.75,3.09,2.11,4.35.68Z"/>
      <path class="cls-2" d="M704.04,426.33c-8.62,1.02-28.15,5.06-22.96,20.61.16.47.48.86.9,1.11,14.17,8.24,22.09-10.07,24.83-18.31.6-1.81-.88-3.64-2.78-3.41Z"/>
      <path class="cls-2" d="M726.01,445.04c-8.67.26-28.49,2.59-24.67,18.53.11.48.4.9.8,1.18,13.4,9.44,22.88-8.11,26.34-16.07.76-1.75-.56-3.7-2.47-3.64Z"/>
      <path class="cls-2" d="M737.12,456.05c8-3.36,25.67-12.63,16.39-26.14-.28-.4-.7-.7-1.17-.82-15.89-4.01-18.46,15.77-18.83,24.44-.08,1.91,1.85,3.25,3.61,2.51Z"/>
      <path class="cls-2" d="M746.42,475.71c8.5-1.77,27.6-7.51,21.07-22.54-.2-.45-.55-.82-1-1.03-14.84-6.96-21.12,11.97-23.13,20.41-.44,1.86,1.2,3.55,3.07,3.16Z"/>
      <path class="cls-2" d="M743.81,479.42c-7.68-4.04-26.07-11.77-30.59,3.99-.14.47-.09.98.12,1.43,7.02,14.81,23.91,4.2,30.84-1.03,1.52-1.15,1.33-3.5-.36-4.39Z"/>
      <path class="cls-2" d="M681.9,414.63c-8.63-.95-28.57-1.4-27.01,14.91.05.49.27.95.63,1.28,11.95,11.21,23.79-4.84,28.32-12.25,1-1.63-.04-3.74-1.94-3.95Z"/>
    </g>
    <g id="frontLeft">
      <path class="cls-18" d="M82.67,406.91s-51.03,34.38-61.43,103.49"/>
      <path class="cls-2" d="M82.39,409.78c8.34-2.42,26.95-9.6,19.28-24.09-.23-.43-.61-.77-1.07-.95-15.32-5.81-20.14,13.55-21.51,22.12-.3,1.89,1.46,3.44,3.3,2.91Z"/>
      <path class="cls-2" d="M67.32,423.67c6.46,5.8,22.4,17.8,30.64,3.63.25-.42.33-.93.24-1.41-3.17-16.08-22.15-9.93-30.15-6.56-1.76.74-2.15,3.06-.73,4.34Z"/>
      <path class="cls-2" d="M46.7,449.49c7.36,4.6,25.12,13.69,30.81-1.68.17-.46.17-.97,0-1.43-5.88-15.3-23.53-5.99-30.83-1.29-1.61,1.03-1.59,3.39.03,4.4Z"/>
      <path class="cls-2" d="M36.98,461.94c1.7-8.51,3.91-28.34-12.48-28.22-.49,0-.97.19-1.34.52-12.22,10.92,2.73,24.12,9.71,29.28,1.54,1.14,3.73.29,4.11-1.58Z"/>
      <path class="cls-2" d="M31.35,478.21c7.37,4.58,25.16,13.61,30.8-1.77.17-.46.16-.97-.01-1.43-5.93-15.28-23.55-5.92-30.83-1.2-1.6,1.04-1.58,3.39.04,4.4Z"/>
      <path class="cls-2" d="M25.58,492.02c-2.08-8.42-8.52-27.31-23.3-20.23-.44.21-.8.58-.99,1.03-6.42,15.08,12.74,20.67,21.25,22.37,1.87.38,3.5-1.33,3.04-3.18Z"/>
      <path class="cls-2" d="M24.63,506.27c8.04,3.26,27.11,9.12,30.05-7,.09-.48,0-.99-.26-1.41-8.45-14.04-24.21-1.81-30.58,4.08-1.4,1.3-.98,3.61.79,4.33Z"/>
      <path class="cls-2" d="M57.66,431.03c3.02-8.13,8.33-27.37-7.87-29.83-.49-.07-.99.03-1.4.3-13.79,8.85-1.11,24.25,4.97,30.45,1.34,1.36,3.64.87,4.3-.92Z"/>
    </g>
  </g>
</svg>