<?xml version="1.0" encoding="UTF-8"?>
<svg id="_圖層_2" data-name="圖層_2" xmlns="http://www.w3.org/2000/svg" viewBox="0 0 750 500">
  <defs>
    <style>
      .cls-1 {
        stroke-width: 1.6px;
      }

      .cls-1, .cls-2, .cls-3, .cls-4 {
        fill: none;
        stroke: #d15b13;
        stroke-linecap: round;
        stroke-linejoin: round;
      }

      .cls-5 {
        fill: #3e62ba;
      }

      .cls-6 {
        fill: #d79120;
      }

      .cls-7 {
        fill: #fada26;
      }

      .cls-8 {
        fill: #fff;
      }

      .cls-9 {
        fill: #ffddd4;
      }

      .cls-2 {
        stroke-width: 1.86px;
      }

      .cls-10 {
        fill: #ffad96;
      }

      .cls-3 {
        stroke-width: .94px;
      }

      .cls-11 {
        fill: #243869;
      }

      .cls-12 {
        fill: #1c2c53;
      }

      .cls-13 {
        opacity: .2;
      }

      .cls-14 {
        fill: #111b33;
      }

      .cls-15 {
        fill: #d15b13;
      }

      .cls-4 {
        stroke-width: 1.7px;
      }

      .cls-16 {
        fill: #d77c20;
      }

      .cls-17 {
        fill: #314d91;
      }
    </style>
  </defs>
  <g id="BACKGROUND">
    <g>
      <rect class="cls-12" width="750" height="500"/>
      <path class="cls-14" d="M725.93,183.64c-.21-4.79-1.5-9.46-3.79-13.67l-10.37-19.05c-2.74-5.03-4.05-10.71-3.79-16.44l1-22.05c3.48,3.73,8.43,6.08,13.94,6.08,6.49,0,12.22-3.25,15.67-8.2,1.81.97,3.88,1.52,6.08,1.52,1.91,0,3.71-.42,5.34-1.17v-53.09c-1.53-.43-3.13-.68-4.79-.68-1.45,0-2.85.19-4.19.52-2.52-7.6-9.67-13.08-18.11-13.08-5.63,0-10.68,2.45-14.17,6.33-1.24-4.46-5.32-7.74-10.18-7.74-2.25,0-4.33.71-6.04,1.9-2.24-1.21-4.81-1.9-7.54-1.9-8.76,0-15.86,7.1-15.86,15.86,0,4.66,2.02,8.83,5.22,11.73-.94,2-1.48,4.22-1.48,6.58,0,2.2.46,4.29,1.29,6.18-4.34.69-7.65,4.44-7.65,8.97,0,5.02,4.07,9.09,9.09,9.09,2.45,0,4.66-.97,6.3-2.54,1.67,7.09,8.02,12.38,15.63,12.38,1.29,0,2.54-.17,3.74-.45l-2.18,31.42c-.45,6.43,1.1,12.85,4.43,18.37l6.88,11.42c3.49,5.8,5.02,12.57,4.35,19.31l-3.05,30.71-48.15-29.25c-1.01-.61-1.82-1.51-2.32-2.58l-10.8-22.91c-.39-.83-.97-1.57-1.69-2.14l-30.21-24.12c.19-1.09.3-2.2.3-3.34,0-.19-.02-.37-.03-.55.52.07,1.05.11,1.58.11,6.75,0,12.21-5.47,12.21-12.21s-5.47-12.21-12.21-12.21c-1.68,0-3.28.34-4.73.95.02-.32.05-.63.05-.95,0-8.27-6.7-14.97-14.97-14.97-3.41,0-6.55,1.15-9.06,3.07-3.15-4.96-8.68-8.25-14.99-8.25-9.82,0-17.78,7.96-17.78,17.78,0,.3.03.6.05.9-6.68,2.7-11.4,9.23-11.4,16.88,0,10.05,8.15,18.21,18.21,18.21,1.64,0,3.21-.24,4.72-.64,1.61,1.18,3.59,1.88,5.74,1.88,1.85,0,3.58-.53,5.05-1.43,3.19,6.63,9.95,11.22,17.81,11.22,7.27,0,13.6-3.93,17.04-9.77l23.47,24.15c.6.62,1.07,1.37,1.36,2.19l2.93,8.26c1.53,4.31-2.11,8.69-6.63,7.97l-20.01-3.18c-2.07-7.32-8.78-12.69-16.76-12.69-.84,0-1.66.08-2.47.2-1.85-4.02-5.9-6.82-10.61-6.82-3.07,0-5.86,1.19-7.94,3.13-2.45-2.59-5.91-4.22-9.76-4.22-7.43,0-13.45,6.02-13.45,13.45,0,2.89.92,5.56,2.47,7.75-1.56,2.34-2.47,5.14-2.47,8.16,0,6.78,4.59,12.48,10.83,14.2-.02.3-.05.6-.05.9,0,6.19,5.02,11.2,11.2,11.2,4.08,0,7.65-2.19,9.61-5.46,1.95,2.86,5.23,4.74,8.96,4.74,5.99,0,10.84-4.85,10.84-10.84,0-1-.15-1.97-.4-2.89,5.16-2.17,9.05-6.76,10.27-12.35l37.06,7.98c.75.16,1.45.46,2.09.89l51,34.19,42.43,58.31v-34.31l-15.03-21.38,15.03-29.25v-13.21l-22.34,25.44-1.73-40.46Z"/>
      <path class="cls-14" d="M204.32,113.35c.05-.56.09-1.13.09-1.71,0-11.01-8.93-19.94-19.94-19.94-7.45,0-13.93,4.09-17.35,10.14-.65-.07-1.3-.11-1.97-.11-10.23,0-18.53,8.3-18.53,18.53,0,5.37,2.29,10.18,5.94,13.57-.36,1.6-.56,3.25-.56,4.96,0,3.7.91,7.19,2.51,10.25l-10.86,12.09c-.95,1.06-2.49,1.35-3.76.72l-34.22-17.1c-1.96-.98-4.3-.82-6.1.43l-8.53,5.88-30.04-8.35c-.38-2.59-1.31-4.99-2.72-7.07,5.81-.83,10.28-5.82,10.28-11.86,0-3.05-1.15-5.82-3.02-7.94,6.12-4.51,10.09-11.76,10.09-19.94,0-13.67-11.08-24.75-24.75-24.75-5.81,0-11.14,2-15.36,5.35-2.91-7-9.81-11.93-17.87-11.93s-14.62,4.7-17.65,11.44v15.79c.09.21.19.42.29.63-.1.09-.19.19-.29.29v62.3c1.4.21,2.84.32,4.3.32,7.23,0,13.83-2.65,18.91-7.03,1.43-.04,2.85-.16,4.23-.38,1.33,8.07,8.31,14.24,16.76,14.24,7.71,0,14.22-5.14,16.3-12.18l22.82,6.4-2.05,1.41c-.4.27-.76.59-1.08.95L0,248.81v45.07l86.48-127.67c.37-.54.82-1.02,1.34-1.41l13-9.88c2.01-1.53,4.76-1.64,6.89-.27l16.35,10.49c.58.37,1.02.92,1.26,1.56l6.87,18.62c1.73,4.67,5.4,8.36,10.07,10.1l17.18,6.41c-4.36,1.83-7.42,6.14-7.42,11.16,0,1.93.46,3.75,1.27,5.37-3.44,3.2-5.61,7.76-5.61,12.83,0,9.61,7.74,17.4,17.32,17.52,5.03,6.82,13.12,11.25,22.24,11.25,15.25,0,27.62-12.36,27.62-27.62,0-5.22-1.45-10.1-3.96-14.26,1.67-1.83,2.69-4.25,2.69-6.91,0-5.67-4.6-10.27-10.27-10.27-1.07,0-2.11.17-3.08.47-3.17-6.47-9.8-10.94-17.49-10.94-6.82,0-12.81,3.51-16.3,8.82l-18.9-8.63c-4.89-2.23-8.45-6.63-9.61-11.89l-.86-3.88c-.57-2.58,2.09-4.68,4.47-3.52h0c1.34.65,2.95.28,3.87-.89l12.73-16.28c2.96,3.11,6.81,5.36,11.15,6.35-.06.54-.1,1.08-.1,1.63,0,7.6,6.16,13.76,13.76,13.76,5.9,0,10.92-3.72,12.87-8.93,2.33.65,4.78,1,7.31,1,15.08,0,27.31-12.23,27.31-27.31s-11.59-26.65-26.11-27.28Z"/>
      <path class="cls-11" d="M750,278.95c-1.74-.26-3.52-.4-5.33-.4-19.76,0-35.77,16.02-35.77,35.77,0,4.2.73,8.22,2.06,11.97-1.82-.09-3.65-.14-5.49-.14-23,0-44.34,7.13-61.94,19.28-8.08-14.13-23.29-23.66-40.73-23.66-25.9,0-46.89,20.99-46.89,46.89,0,1.11.05,2.21.13,3.3-7.08-3.92-15.22-6.16-23.88-6.16-16.8,0-31.63,8.4-40.55,21.22-5.51-6.91-14-11.34-23.53-11.34-16.62,0-30.1,13.47-30.1,30.1,0,6.94,2.36,13.33,6.31,18.43-3.59,2.02-6.98,4.34-10.14,6.94-16.6-7.15-37.04-11.37-59.15-11.37s-42.55,4.22-59.15,11.37c-12.14-9.99-27.69-15.98-44.64-15.98-1.35,0-2.68.05-4.01.12,0-.04,0-.08,0-.12,0-27.26-22.1-49.36-49.36-49.36-17.68,0-33.19,9.31-41.9,23.28-3.91-11.12-14.5-19.09-26.95-19.09-5.21,0-10.08,1.4-14.29,3.83-19.64-28.78-52.7-47.68-90.17-47.68-15.86,0-30.93,3.39-44.53,9.48v164.37h750v-221.05Z"/>
      <path class="cls-10" d="M750,298.95c-1.74-.26-3.52-.4-5.33-.4-19.76,0-35.77,16.02-35.77,35.77,0,4.2.73,8.22,2.06,11.97-1.82-.09-3.65-.14-5.49-.14-23,0-44.34,7.13-61.94,19.28-8.08-14.13-23.29-23.66-40.73-23.66-25.9,0-46.89,20.99-46.89,46.89,0,1.11.05,2.21.13,3.3-7.08-3.92-15.22-6.16-23.88-6.16-16.8,0-31.63,8.4-40.55,21.22-5.51-6.91-14-11.34-23.53-11.34-16.62,0-30.1,13.47-30.1,30.1,0,6.94,2.36,13.33,6.31,18.43-3.59,2.02-6.98,4.34-10.14,6.94-16.6-7.15-37.04-11.37-59.15-11.37s-42.55,4.22-59.15,11.37c-12.14-9.99-27.69-15.98-44.64-15.98-1.35,0-2.68.05-4.01.12,0-.04,0-.08,0-.12,0-27.26-22.1-49.36-49.36-49.36-17.68,0-33.19,9.31-41.9,23.28-3.91-11.12-14.5-19.09-26.95-19.09-5.21,0-10.08,1.4-14.29,3.83-19.64-28.78-52.7-47.68-90.17-47.68-15.86,0-30.93,3.39-44.53,9.48v144.37h750v-201.05Z"/>
      <path class="cls-14" d="M451.48,422.2c7.28.22,14.55.49,21.81.81,2.79-2.65,5.5-6.55,7.54-11.16,4.32-9.8,3.99-19.12-.75-20.82s-12.08,4.85-16.41,14.65c-.2.46-.39.92-.57,1.38-3.27-4.22-7.87-6.42-11.56-5.1-4.74,1.7-6.15,8.58-3.16,15.35.82,1.85,1.89,3.5,3.1,4.89Z"/>
      <path class="cls-14" d="M308.68,423.59c1.68-3.48,1.31-7.36-1.21-9.54-1.6-1.39-3.77-1.81-5.95-1.38.01-.03.02-.06.03-.09,4.59-13.37,2.8-26.1-4-28.44-6.16-2.11-14.32,5.02-19.21,16.32-5.01-9.22-12.46-14.66-17.62-12.42-5.75,2.51-6.45,13.63-1.56,24.84.09.21.2.42.29.63-2.43.17-4.6,1.18-6.02,3.02-2.1,2.73-2.02,6.58-.16,10,18.44-1.1,36.91-2.11,55.41-2.96Z"/>
      <path class="cls-12" d="M178.89,431.26c.19-1.07.31-2.16.31-3.28,0-10.33-8.37-18.7-18.7-18.7-5.93,0-11.21,2.77-14.63,7.08-3.73-4.74-9.5-7.8-16-7.8-1.44,0-2.85.16-4.21.44.4-.93.62-1.95.62-3.02,0-4.24-3.44-7.68-7.68-7.68-4,0-7.28,3.06-7.64,6.96-3.76-2.12-8.09-3.33-12.71-3.33-3.13,0-6.13.55-8.91,1.57.18-.75.28-1.52.28-2.32,0-5.56-4.51-10.06-10.06-10.06-3.99,0-7.42,2.33-9.05,5.69-5.56-5.15-12.99-8.3-21.16-8.3-12.7,0-23.61,7.6-28.46,18.49-1.31-1.18-3.04-1.9-4.94-1.9-4.09,0-7.4,3.32-7.4,7.4,0,1.38.39,2.67,1.05,3.78-3.54.42-6.81,1.73-9.56,3.72v18.77c59.28-.17,118.92-3.69,178.89-7.53Z"/>
      <path class="cls-12" d="M750,418.16c-2.23-1.17-4.68-1.97-7.28-2.31.72-1.17,1.15-2.55,1.17-4.03.06-4.37-3.44-7.96-7.81-8.02-2.03-.03-3.89.72-5.3,1.96-5.04-11.71-16.6-19.99-30.17-20.16-8.74-.11-16.73,3.15-22.74,8.58-1.69-3.62-5.33-6.15-9.6-6.21-5.94-.08-10.82,4.68-10.9,10.62-.01.85.09,1.68.27,2.48-2.95-1.12-6.15-1.76-9.5-1.8-4.94-.06-9.59,1.17-13.63,3.38-.33-4.18-3.8-7.49-8.07-7.55-4.53-.06-8.26,3.57-8.32,8.1-.01,1.14.21,2.24.62,3.23-1.45-.32-2.95-.51-4.5-.53-6.95-.09-13.16,3.1-17.22,8.12-3.6-4.65-9.2-7.69-15.54-7.77-11.04-.14-20.11,8.69-20.25,19.73-.02,1.2.09,2.37.28,3.51,63.16,4.87,125.99,9.38,188.49,10.47v-21.82Z"/>
      <g>
        <path class="cls-17" d="M750,437.62c-114.04-.29-229.34-17.43-345.74-17.43-136.34,0-271.19,17.2-404.26,17.59v62.22h750v-62.38Z"/>
        <g class="cls-13">
          <path class="cls-11" d="M205.72,480.73c2.4-8.15-15.62-15.26-40.25-15.89-24.62-.62-46.53,5.48-48.92,13.63s15.62,15.26,40.25,15.89c24.62.62,46.53-5.48,48.92-13.63Z"/>
          <path class="cls-7" d="M113.85,490.56c.86-.45,2.1-.67,2.98-.75.16-.01.18-.08.03-.1-.83-.12-1.92-.4-2.51-.88-.05-.04-.26-.05-.34,0-.86.44-2.1.67-2.98.75-.16.01-.18.08-.03.1.83.12,1.92.4,2.51.88.05.04.26.05.34,0Z"/>
          <path class="cls-7" d="M206.37,470.8c.86-.44,2.1-.67,2.98-.75.16-.01.18-.08.03-.1-.83-.12-1.92-.4-2.51-.88-.05-.04-.26-.05-.34,0-.86.45-2.1.67-2.98.75-.16.01-.18.08-.03.1.83.12,1.92.4,2.51.88.05.04.26.05.34,0Z"/>
          <path class="cls-7" d="M99.48,486.09c1.71-.89,4.19-1.33,5.95-1.49.32-.03.36-.16.06-.2-1.65-.24-3.83-.8-5-1.76-.11-.09-.52-.1-.68-.02-1.71.89-4.19,1.33-5.95,1.49-.32.03-.36.16-.06.2,1.65.24,3.83.8,5,1.76.11.09.52.1.68.02Z"/>
          <g>
            <path class="cls-16" d="M173.17,473.94l-35.1-2.59-23.94,13.41c-1.04.58.05,1.3,2.23,1.46l52.81,3.9c1.78.13,3.5-.26,3.52-.8l.49-15.38Z"/>
            <path class="cls-6" d="M124.46,485.5c.44-.48-1.08-1.01-3.39-1.2s-4.54.05-4.98.53c-.44.48,1.08,1.01,3.39,1.2,2.31.18,4.54-.05,4.98-.53Z"/>
            <path class="cls-6" d="M177.55,488.91l12.44-3.71c1.38-.41,1.91-1.01,1.4-1.56l-10.39-11.35-7.83,1.65-.46,14.38c-.02.75,3.06,1.12,4.84.59Z"/>
            <path class="cls-7" d="M190.02,483.71c-1.05-.32-3.01-.27-4.39.12s-1.65.96-.6,1.28c1.05.32,3.01.27,4.39-.12,1.38-.39,1.65-.96.6-1.28Z"/>
            <polygon class="cls-15" points="172.98 479.85 172.82 484.68 120.41 481.23 127.74 477.13 172.98 479.85"/>
            <polygon class="cls-14" points="127.03 477.59 120.52 481.23 120.41 481.23 127.74 477.13 172.98 479.85 172.96 480.35 127.03 477.59"/>
            <polygon class="cls-14" points="172.84 484.12 172.82 484.68 120.41 481.23 121.3 480.73 172.84 484.12"/>
            <polygon class="cls-16" points="186.25 478.02 189.62 481.71 172.82 484.68 172.94 481.07 172.98 479.85 186.25 478.02"/>
            <polygon class="cls-12" points="172.96 480.36 172.98 479.85 186.25 478.02 186.66 478.47 172.96 480.36"/>
            <polygon class="cls-12" points="189.2 481.24 189.62 481.71 172.82 484.68 172.84 484.14 189.2 481.24"/>
            <polygon class="cls-7" points="138.06 471.34 146.35 469.73 181 472.29 173.17 473.94 138.06 471.34"/>
            <polygon class="cls-4" points="138.06 471.34 146.35 469.73 181 472.29 173.17 473.94 138.06 471.34"/>
            <g>
              <path class="cls-8" d="M154.28,472.54c-.45-.37-.69-.78-.66-1.22.11-1.44,3.11-2.58,6.7-2.56,3.59.02,6.41,1.21,6.3,2.65-.06.75-.9,1.42-2.2,1.88l-10.14-.75Z"/>
              <path class="cls-9" d="M166.33,472.09c-.36.47-1.03.88-1.91,1.2l-10.14-.75c-.45-.37-.69-.78-.66-1.22,0-.04.02-.08.03-.12l12.68.89Z"/>
            </g>
            <line class="cls-4" x1="173.17" y1="473.94" x2="138.06" y2="471.34"/>
            <path class="cls-16" d="M177.55,488.91c.08-.02-3.34,1.42-7.81,1.23l3.02-3.49s-.92,2.76,4.79,2.26Z"/>
          </g>
        </g>
        <g class="cls-13">
          <path class="cls-11" d="M627.82,473.17c-6-5.73-24.06-8.71-40.33-6.67-16.27,2.04-24.6,8.34-18.6,14.06,6,5.73,24.06,8.71,40.33,6.67,16.27-2.04,24.6-8.34,18.6-14.06Z"/>
          <path class="cls-7" d="M578.13,487.06c1.13-.82,2.94-1.26,4.28-1.44.24-.03.24-.15,0-.18-1.33-.18-3.15-.62-4.28-1.44-.1-.07-.43-.07-.53,0-1.13.82-2.94,1.26-4.28,1.44-.24.03-.24.15,0,.18,1.33.18,3.15.62,4.28,1.44.1.07.43.07.53,0Z"/>
          <path class="cls-7" d="M622.47,468.18c.6-.44,1.58-.67,2.29-.77.13-.02.13-.08,0-.1-.71-.1-1.69-.33-2.29-.77-.06-.04-.23-.04-.29,0-.6.44-1.58.67-2.29.77-.13.02-.13.08,0,.1.71.1,1.69.33,2.29.77.06.04.23.04.29,0Z"/>
          <path class="cls-7" d="M594.17,488.4c.61-.44,1.6-.68,2.33-.78.13-.02.13-.08,0-.1-.73-.1-1.72-.34-2.33-.78-.06-.04-.23-.04-.29,0-.61.44-1.6.68-2.33.78-.13.02-.13.08,0,.1.73.1,1.72.34,2.33.78.06.04.23.04.29,0Z"/>
          <path class="cls-7" d="M638.02,476.36c.61-.44,1.6-.68,2.33-.78.13-.02.13-.08,0-.1-.73-.1-1.72-.34-2.33-.78-.06-.04-.23-.04-.29,0-.61.44-1.6.68-2.33.78-.13.02-.13.08,0,.1.73.1,1.72.34,2.33.78.06.04.23.04.29,0Z"/>
          <g>
            <path class="cls-16" d="M594.03,472.5l25.23-1.67,15.41,11.03c.67.48-.19,1.04-1.75,1.15l-37.96,2.52c-1.28.08-2.46-.25-2.4-.68l1.47-12.34Z"/>
            <path class="cls-6" d="M627.24,482.33c-.26-.39.88-.8,2.55-.92s3.22.09,3.47.48-.88.8-2.55.92-3.22-.09-3.47-.48Z"/>
            <path class="cls-6" d="M589.14,484.45l-8.39-3.12c-.93-.35-1.24-.83-.81-1.27l8.72-8.98,5.37,1.41-1.38,11.54c-.07.6-2.3.87-3.51.42Z"/>
            <path class="cls-7" d="M580.91,480.14c.78-.25,2.17-.18,3.1.15s1.06.79.27,1.04c-.78.25-2.17.18-3.1-.15-.93-.33-1.06-.79-.27-1.04Z"/>
            <polygon class="cls-15" points="593.46 477.24 593 481.11 630.62 478.95 625.91 475.58 593.46 477.24"/>
            <polygon class="cls-14" points="626.35 475.96 630.55 478.96 630.62 478.95 625.91 475.58 593.46 477.24 593.41 477.64 626.35 475.96"/>
            <polygon class="cls-14" points="593.05 480.67 593 481.11 630.62 478.95 630.05 478.54 593.05 480.67"/>
            <polygon class="cls-16" points="584.25 475.62 581.42 478.54 593 481.11 593.34 478.22 593.46 477.24 584.25 475.62"/>
            <polygon class="cls-12" points="593.41 477.65 593.46 477.24 584.25 475.62 583.91 475.98 593.41 477.65"/>
            <polygon class="cls-12" points="581.78 478.17 581.42 478.54 593 481.11 593.05 480.68 581.78 478.17"/>
            <polygon class="cls-7" points="619.26 470.82 613.56 469.43 588.66 471.09 594.03 472.5 619.26 470.82"/>
            <polygon class="cls-1" points="619.26 470.82 613.56 469.43 588.66 471.09 594.03 472.5 619.26 470.82"/>
            <g>
              <path class="cls-8" d="M607.6,471.59c.36-.29.58-.62.61-.97.09-1.15-1.91-2.11-4.46-2.13-2.55-.02-4.69.9-4.78,2.05-.05.6.47,1.15,1.34,1.53l7.29-.48Z"/>
              <path class="cls-9" d="M599.1,471.09c.2.38.62.72,1.22.99l7.29-.48c.36-.29.58-.62.61-.97,0-.03,0-.07,0-.1l-9.11.57Z"/>
            </g>
            <line class="cls-1" x1="594.03" y1="472.5" x2="619.26" y2="470.82"/>
            <path class="cls-16" d="M589.14,484.45c-.05-.01,2.2,1.17,5.4,1.08l-1.73-2.83s.33,2.23-3.67,1.76Z"/>
          </g>
        </g>
        <g class="cls-13">
          <ellipse class="cls-11" cx="487.11" cy="448.08" rx="27.03" ry="6.3"/>
          <path class="cls-7" d="M507.69,453.32c.95-.47,2.49-.73,3.63-.83.2-.02.2-.08,0-.1-1.13-.1-2.67-.36-3.63-.83-.09-.04-.36-.04-.45,0-.95.47-2.49.73-3.62.83-.2.02-.2.08,0,.1,1.13.1,2.67.36,3.62.83.09.04.36.04.45,0Z"/>
          <path class="cls-7" d="M516.69,450.29c.58-.29,1.51-.44,2.19-.5.12-.01.12-.05,0-.06-.68-.06-1.62-.22-2.19-.5-.05-.03-.22-.03-.27,0-.58.29-1.51.44-2.19.5-.12.01-.12.05,0,.06.68.06,1.62.22,2.19.5.05.03.22.03.27,0Z"/>
          <path class="cls-7" d="M461.86,446.11c.49-.24,1.27-.37,1.85-.43.1,0,.1-.04,0-.05-.58-.05-1.36-.18-1.85-.43-.04-.02-.19-.02-.23,0-.49.24-1.27.37-1.85.43-.1,0-.1.04,0,.05.58.05,1.36.18,1.85.43.04.02.19.02.23,0Z"/>
          <path class="cls-7" d="M509.54,443.08c.49-.24,1.27-.37,1.85-.43.1,0,.1-.04,0-.05-.58-.05-1.36-.18-1.85-.43-.04-.02-.19-.02-.23,0-.49.24-1.27.37-1.85.43-.1,0-.1.04,0,.05.58.05,1.36.18,1.85.43.04.02.19.02.23,0Z"/>
          <g>
            <path class="cls-16" d="M485.3,443.49l18.16.49,3.11,5.88c.14.26-.82.47-1.94.44l-27.31-.73c-.92-.02-1.49-.24-1.17-.44l9.17-5.64Z"/>
            <path class="cls-6" d="M501.23,449.7c.08-.19,1.13-.33,2.33-.3s2.11.2,2.03.4c-.08.19-1.13.33-2.33.3-1.2-.03-2.11-.2-2.03-.4Z"/>
            <path class="cls-6" d="M474.08,448.78l-3.61-1.86c-.4-.21-.29-.45.29-.63l11.84-3.72,2.69.92-8.57,5.27c-.45.27-2.13.29-2.65.02Z"/>
            <path class="cls-7" d="M471.38,446.37c.69-.07,1.59.03,2,.22.41.2.19.42-.5.49s-1.59-.03-2-.22c-.41-.2-.19-.42.5-.49Z"/>
            <polygon class="cls-15" points="481.78 445.66 478.9 447.43 505.75 448.31 504.8 446.51 481.78 445.66"/>
            <polygon class="cls-14" points="504.85 446.71 505.7 448.31 505.75 448.31 504.8 446.51 481.78 445.66 481.48 445.84 504.85 446.71"/>
            <polygon class="cls-14" points="479.23 447.22 478.9 447.43 505.75 448.31 505.64 448.09 479.23 447.22"/>
            <polygon class="cls-16" points="476.63 444.45 472.79 445.65 478.9 447.43 481.05 446.1 481.78 445.66 476.63 444.45"/>
            <polygon class="cls-12" points="481.47 445.84 481.78 445.66 476.63 444.45 476.16 444.59 481.47 445.84"/>
            <polygon class="cls-12" points="473.27 445.5 472.79 445.65 478.9 447.43 479.22 447.23 473.27 445.5"/>
            <polygon class="cls-7" points="503.46 443.98 500.53 443.05 482.61 442.57 485.3 443.49 503.46 443.98"/>
            <polygon class="cls-3" points="503.46 443.98 500.53 443.05 482.61 442.57 485.3 443.49 503.46 443.98"/>
            <g>
              <path class="cls-8" d="M495.07,443.75c.44-.12.8-.26,1.06-.42.83-.53.11-1.07-1.6-1.21-1.71-.14-3.76.18-4.59.71-.43.28-.44.55-.11.78l5.24.14Z"/>
              <path class="cls-9" d="M489.66,443.09c-.12.19-.06.36.17.52l5.24.14c.44-.12.8-.26,1.06-.42.02-.02.04-.03.06-.05l-6.53-.19Z"/>
            </g>
            <line class="cls-3" x1="485.3" y1="443.49" x2="503.46" y2="443.98"/>
            <path class="cls-16" d="M474.08,448.78s.71.65,2.93.77l.71-1.4s-1.26,1.05-3.64.63Z"/>
          </g>
        </g>
        <g class="cls-13">
          <ellipse class="cls-11" cx="390.65" cy="443.69" rx="71.41" ry="21.81"/>
          <g>
            <ellipse class="cls-9" cx="390.65" cy="443.69" rx="57.8" ry="17.65"/>
            <path class="cls-10" d="M401.71,429.5c-30.29,0-54.85,7.5-54.85,16.76,0,6,10.31,11.26,25.81,14.22-23.12-2.31-39.82-8.95-39.82-16.78,0-9.75,25.88-17.65,57.8-17.65,20.06,0,37.73,3.12,48.1,7.86-9.76-2.73-22.76-4.4-37.04-4.4Z"/>
            <path class="cls-10" d="M365.45,437.11c4.84-1.66,6.31-3.67,3.28-4.5-3.03-.83-9.41-.15-14.25,1.51-4.84,1.66-6.31,3.67-3.28,4.5,3.03.83,9.41.15,14.25-1.51Z"/>
            <path class="cls-10" d="M366.76,449.59c-.77-1.36-3.46-2.35-6.01-2.21-2.55.13-3.99,1.34-3.23,2.7.77,1.36,3.46,2.35,6.01,2.21,2.55-.13,3.99-1.34,3.23-2.7Z"/>
            <ellipse class="cls-10" cx="405.37" cy="433.95" rx="8.81" ry="1.67"/>
            <path class="cls-10" d="M387.74,455.66c-2.78-.3-5.56-.08-6.21.49-.65.57,1.08,1.27,3.86,1.56,2.78.3,5.56.08,6.21-.49.65-.57-1.08-1.27-3.86-1.56Z"/>
            <path class="cls-8" d="M442.68,445.53c1.28-2.62-1.37-4.9-5.92-5.11-4.55-.21-9.26,1.75-10.54,4.36-1.28,2.62,1.37,4.9,5.92,5.11,4.55.21,9.26-1.75,10.54-4.36Z"/>
            <path class="cls-8" d="M429.33,454.41c1.77-.9,1.4-1.96-.82-2.36-2.22-.41-5.45,0-7.22.89s-1.4,1.96.82,2.36,5.45,0,7.22-.89Z"/>
          </g>
        </g>
        <g class="cls-13">
          <ellipse class="cls-11" cx="266.03" cy="472.29" rx="37.87" ry="22.2"/>
          <path class="cls-7" d="M236.63,487.41c.59-.71,1.55-1.09,2.25-1.25.13-.03.13-.13,0-.15-.7-.15-1.66-.54-2.25-1.25-.05-.07-.23-.07-.28,0-.59.71-1.55,1.09-2.25,1.25-.13.03-.13.13,0,.15.7.15,1.66.54,2.25,1.25.05.07.23.07.28,0Z"/>
          <path class="cls-7" d="M298.66,473.61c.59-.71,1.55-1.09,2.25-1.25.13-.03.13-.13,0-.15-.7-.15-1.66-.54-2.25-1.25-.05-.06-.23-.06-.28,0-.59.71-1.55,1.09-2.25,1.25-.13.03-.13.13,0,.15.7.15,1.66.54,2.25,1.25.05.07.23.07.28,0Z"/>
          <path class="cls-7" d="M223.49,482.94c1.18-1.41,3.09-2.18,4.48-2.49.25-.06.25-.25,0-.31-1.4-.31-3.31-1.07-4.48-2.49-.11-.13-.45-.13-.56,0-1.18,1.41-3.09,2.18-4.48,2.49-.25.06-.25.25,0,.31,1.4.31,3.31,1.07,4.48,2.49.11.13.45.13.56,0Z"/>
          <path class="cls-7" d="M293.84,455.39c1.18-1.41,3.09-2.18,4.48-2.49.25-.06.25-.25,0-.31-1.4-.31-3.31-1.07-4.48-2.49-.11-.13-.45-.13-.56,0-1.18,1.41-3.09,2.18-4.48,2.49-.25.06-.25.25,0,.31,1.4.31,3.31,1.07,4.48,2.49.11.13.45.13.56,0Z"/>
          <g>
            <path class="cls-16" d="M266.99,454.32l-28.9,1.63-5.55,22.49c-.24.98,1.25,1.83,3.04,1.72l43.47-2.45c1.46-.08,2.4-.89,1.91-1.65l-13.97-21.74Z"/>
            <path class="cls-6" d="M241.04,477.93c-.11-.74-1.76-1.26-3.67-1.18-1.92.09-3.38.76-3.26,1.49.11.74,1.76,1.26,3.67,1.18s3.38-.76,3.26-1.49Z"/>
            <path class="cls-6" d="M284.27,474.75l5.93-7.09c.66-.79.5-1.7-.4-2.41l-18.43-14.42-4.37,3.5,13.07,20.33c.68,1.06,3.35,1.12,4.2.1Z"/>
            <path class="cls-7" d="M288.82,465.55c-1.09-.3-2.52.08-3.2.83s-.34,1.6.75,1.9c1.09.3,2.52-.08,3.2-.83.68-.75.34-1.6-.75-1.9Z"/>
            <polygon class="cls-15" points="272.37 462.68 276.75 469.5 234.01 472.53 235.7 465.65 272.37 462.68"/>
            <polygon class="cls-14" points="235.6 466.4 234.09 472.52 234.01 472.53 235.7 465.65 272.37 462.68 272.82 463.39 235.6 466.4"/>
            <polygon class="cls-14" points="276.25 468.72 276.75 469.5 234.01 472.53 234.21 471.7 276.25 468.72"/>
            <polygon class="cls-16" points="280.67 458.11 286.65 462.79 276.75 469.5 273.48 464.41 272.37 462.68 280.67 458.11"/>
            <polygon class="cls-12" points="272.83 463.4 272.37 462.68 280.67 458.11 281.4 458.68 272.83 463.4"/>
            <polygon class="cls-12" points="285.9 462.2 286.65 462.79 276.75 469.5 276.26 468.74 285.9 462.2"/>
            <polygon class="cls-7" points="238.1 455.95 242.85 452.43 271.37 450.82 266.99 454.32 238.1 455.95"/>
            <polygon class="cls-2" points="238.1 455.95 242.85 452.43 271.37 450.82 266.99 454.32 238.1 455.95"/>
            <g>
              <path class="cls-8" d="M251.45,455.19c-.68-.45-1.25-1-1.64-1.62-1.26-2.04-.06-4.11,2.67-4.61,2.73-.51,5.96.74,7.22,2.78.65,1.06.64,2.13.09,2.98l-8.35.47Z"/>
              <path class="cls-9" d="M260.12,452.74c.17.71.05,1.4-.32,1.98l-8.35.47c-.68-.45-1.25-1-1.64-1.62-.04-.06-.06-.12-.1-.18l10.4-.65Z"/>
            </g>
            <line class="cls-2" x1="266.99" y1="454.32" x2="238.1" y2="455.95"/>
            <path class="cls-16" d="M284.27,474.75s-1.2,2.5-4.74,2.91l-.98-5.37s1.88,4.03,5.72,2.46Z"/>
          </g>
        </g>
        <path class="cls-5" d="M404.26,420.19c-136.34,0-271.19,17.2-404.26,17.59v8c133.07-.39,267.91-17.59,404.26-17.59,116.4,0,231.7,17.15,345.74,17.43v-8c-114.04-.29-229.34-17.43-345.74-17.43Z"/>
        <path class="cls-5" d="M294.47,445.68c0,2.61-16.8,4.72-37.51,4.72s-37.51-2.11-37.51-4.72,16.8-4.72,37.51-4.72,37.51,2.11,37.51,4.72Z"/>
        <ellipse class="cls-5" cx="258.38" cy="462.57" rx="27.28" ry="3.43"/>
        <path class="cls-16" d="M269.32,479.81c0,.68-4.38,1.23-9.79,1.23s-9.79-.55-9.79-1.23,4.38-1.23,9.79-1.23,9.79.55,9.79,1.23Z"/>
        <ellipse class="cls-5" cx="102.49" cy="454.31" rx="29.8" ry="3.75"/>
        <ellipse class="cls-5" cx="103.62" cy="467.73" rx="21.67" ry="2.73"/>
        <path class="cls-16" d="M112.31,481.42c0,.54-3.48.98-7.78.98s-7.78-.44-7.78-.98,3.48-.98,7.78-.98,7.78.44,7.78.98Z"/>
        <ellipse class="cls-5" cx="501.74" cy="444.63" rx="33.11" ry="4.17"/>
        <path class="cls-5" d="M527.08,459.54c0,1.67-10.78,3.03-24.08,3.03s-24.08-1.36-24.08-3.03,10.78-3.03,24.08-3.03,24.08,1.36,24.08,3.03Z"/>
        <ellipse class="cls-16" cx="504.02" cy="474.75" rx="8.64" ry="1.09"/>
        <path class="cls-5" d="M692.22,453.17c0,1.87-12.07,3.39-26.95,3.39s-26.95-1.52-26.95-3.39,12.07-3.39,26.95-3.39,26.95,1.52,26.95,3.39Z"/>
        <ellipse class="cls-5" cx="666.3" cy="465.31" rx="19.6" ry="2.47"/>
        <path class="cls-16" d="M674.16,477.69c0,.49-3.15.89-7.03.89s-7.03-.4-7.03-.89,3.15-.89,7.03-.89,7.03.4,7.03.89Z"/>
        <path class="cls-5" d="M447.31,440.58c0,2.24-25.37,4.05-56.66,4.05s-56.66-1.81-56.66-4.05,25.37-4.05,56.66-4.05,56.66,1.81,56.66,4.05Z"/>
        <ellipse class="cls-5" cx="390.65" cy="454.06" rx="37.2" ry="3.66"/>
        <ellipse class="cls-5" cx="390.45" cy="469.26" rx="18.6" ry="1.83"/>
      </g>
    </g>
  </g>
</svg>