<?xml version="1.0" encoding="UTF-8"?>
<svg id="_圖層_2" data-name="圖層_2" xmlns="http://www.w3.org/2000/svg" viewBox="0 0 225.68 225.68">
  <defs>
    <style>
      .cls-1 {
        fill: #fff;
      }

      .cls-2 {
        fill: #ffddd4;
      }

      .cls-3 {
        fill: #ffad96;
      }

      .cls-4 {
        fill: #243869;
      }
    </style>
  </defs>
  <g id="OBJECTS">
    <g>
      <circle class="cls-4" cx="112.84" cy="112.84" r="112.84" transform="translate(-46.74 112.84) rotate(-45)"/>
      <g>
        <circle class="cls-2" cx="112.84" cy="112.84" r="91.33" transform="translate(-46.74 112.84) rotate(-45)"/>
        <path class="cls-3" d="M130.31,186.24c-47.87,0-86.67-38.81-86.67-86.67,0-31.02,16.3-58.22,40.79-73.54-36.53,11.95-62.92,46.3-62.92,86.82,0,50.44,40.89,91.33,91.33,91.33,31.7,0,59.63-16.16,76-40.68-15.42,14.13-35.97,22.75-58.53,22.75Z"/>
        <path class="cls-3" d="M73.02,146.86c7.65,8.58,9.97,18.99,5.18,23.26-4.79,4.27-14.87.78-22.52-7.8-7.65-8.58-9.97-18.99-5.18-23.26,4.79-4.27,14.87-.78,22.52,7.8Z"/>
        <path class="cls-3" d="M75.09,82.32c-1.21,7.02-5.47,12.14-9.5,11.44-4.03-.7-6.31-6.95-5.1-13.97,1.21-7.02,5.47-12.14,9.5-11.44,4.03.7,6.31,6.95,5.1,13.97Z"/>
        <ellipse class="cls-3" cx="136.1" cy="163.21" rx="13.91" ry="8.62"/>
        <path class="cls-3" d="M108.24,50.93c-4.39,1.54-8.78.41-9.81-2.52s1.71-6.55,6.1-8.08c4.39-1.54,8.78-.41,9.81,2.52,1.02,2.93-1.71,6.55-6.1,8.08Z"/>
        <ellipse class="cls-1" cx="182.05" cy="105.27" rx="13.15" ry="24.77" transform="translate(-13.53 27.99) rotate(-8.48)"/>
        <path class="cls-1" d="M173.96,57.4c2.79,4.65,2.21,10.13-1.3,12.23-3.51,2.1-8.61.04-11.4-4.61-2.79-4.65-2.21-10.13,1.3-12.23,3.51-2.1,8.61-.04,11.4,4.61Z"/>
      </g>
    </g>
  </g>
</svg>